<mxfile host="app.diagrams.net" modified="2024-03-09T12:27:48.864Z" agent="Mozilla/5.0 (X11; Linux x86_64) AppleWebKit/537.36 (KHTML, like Gecko) Chrome/122.0.0.0 Safari/537.36" version="24.0.3" etag="OoENd0O8MswOHnoGCMAc" type="github">
  <diagram name="Page-1" id="JnOhdEwZeGRajP59GQc7">
    <mxGraphModel>
      <root>
        <mxCell id="0" />
        <mxCell id="1" parent="0" />
      </root>
    </mxGraphModel>
  </diagram>
</mxfile>
